<svg xmlns="http://www.w3.org/2000/svg" viewBox="0 0 595 842" width="595" height="842" font-family="Arial, Helvetica, sans-serif">
<rect width="595" height="842" fill="#0f141b"/>
<rect x="0" y="0" width="595" height="196" fill="#16202e"/>
<rect x="0" y="196" width="595" height="5" fill="#4fc3bd"/>
<text x="44" y="52" font-size="12.5" fill="#bfe4e0" font-family="Georgia, serif" font-style="italic">b(t) = b(t−1)·(1+i)/(1+g) − sp</text>
<text x="44" y="104" font-size="33" font-weight="bold" fill="#ffffff">España en escenarios</text>
<text x="44" y="166" font-size="14.5" fill="#bfe4e0">simulación económica transparente y evaluación crítica de</text>
<text x="44" y="185" font-size="14.5" fill="#bfe4e0">modelos de IA</text>
<text x="44" y="226" font-size="12" font-weight="bold" letter-spacing="1.2" fill="#9fb0c0">LA IDEA CENTRAL</text>
<rect x="44" y="240" width="507" height="42" rx="6" fill="#0f141b" stroke="#9fc6e8" stroke-width="1"/>
<rect x="44" y="240" width="5" height="42" rx="2.5" fill="#4fc3bd"/>
<g transform="translate(64,251) scale(0.875)" fill="#9fc6e8" color="#9fc6e8"><path d="M7.93413 16.0659C8.22703 16.3588 8.22703 16.8336 7.93413 17.1265C7.64124 17.4194 7.16637 17.4194 6.87347 17.1265C4.04217 14.2952 4.04217 9.70478 6.87347 6.87348C8.71833 5.02862 11.3099 4.38674 13.6723 4.94459C14.0755 5.03978 14.3251 5.44375 14.2299 5.84687C14.1347 6.25 13.7308 6.49963 13.3276 6.40444C11.45 5.96106 9.39622 6.47205 7.93413 7.93414C5.68862 10.1797 5.68862 13.8203 7.93413 16.0659ZM17.8879 9.1415C18.2789 9.00477 18.7067 9.21089 18.8435 9.60189C19.7333 12.1463 19.1624 15.0907 17.1265 17.1265C16.8336 17.4194 16.3588 17.4194 16.0659 17.1265C15.773 16.8336 15.773 16.3588 16.0659 16.0659C17.6791 14.4526 18.1344 12.1183 17.4276 10.097C17.2908 9.70604 17.4969 9.27824 17.8879 9.1415ZM15.8791 6.66732C16.1062 6.47297 16.439 6.46653 16.6734 6.65195C16.9078 6.83738 16.9781 7.16278 16.8412 7.42842L16.7119 7.67862C16.6295 7.83801 16.5113 8.06624 16.3681 8.34179C16.0818 8.89278 15.6954 9.63339 15.2955 10.3912C14.8959 11.1485 14.4815 11.9253 14.1395 12.5479C13.9686 12.8589 13.8142 13.1344 13.6879 13.3509C13.5703 13.5524 13.4548 13.7421 13.3688 13.8508C12.7263 14.6629 11.5471 14.8004 10.735 14.1579C9.92288 13.5154 9.78538 12.3362 10.4279 11.5241C10.5139 11.4154 10.672 11.2593 10.8409 11.0986C11.0226 10.9258 11.2552 10.7121 11.5185 10.4744C12.0457 9.9983 12.7063 9.41631 13.3514 8.85315C13.9969 8.28961 14.6288 7.74321 15.0991 7.33783C15.3343 7.1351 15.5292 6.96755 15.6654 6.85065L15.8791 6.66732ZM22 12C22 17.5228 17.5228 22 12 22C6.47715 22 2 17.5228 2 12C2 6.47715 6.47715 2 12 2C17.5228 2 22 6.47715 22 12ZM3.5 12C3.5 16.6944 7.30558 20.5 12 20.5C16.6944 20.5 20.5 16.6944 20.5 12C20.5 7.30558 16.6944 3.5 12 3.5C7.30558 3.5 3.5 7.30558 3.5 12Z" fill="currentColor"/></g>
<text x="97" y="260" font-size="13.5" font-weight="bold" fill="#9fc6e8">Motor determinista</text>
<text x="97" y="274" font-size="10.5" fill="#9fb0c0">anclas numéricas: 40 series, todos los años</text>
<path d="M 64.0 284 L 68 289 L 72.0 284" fill="none" stroke="#9fc6e8" stroke-width="2" stroke-linecap="round" stroke-linejoin="round"/>
<g transform="translate(521,252) scale(0.75)" fill="#4fc3bd" color="#4fc3bd"><path d="M12 2C17.5228 2 22 6.47715 22 12C22 17.5228 17.5228 22 12 22C6.47715 22 2 17.5228 2 12C2 6.47715 6.47715 2 12 2ZM12 3.5C7.30558 3.5 3.5 7.30558 3.5 12C3.5 16.6944 7.30558 20.5 12 20.5C16.6944 20.5 20.5 16.6944 20.5 12C20.5 7.30558 16.6944 3.5 12 3.5ZM10.75 13.4393L15.2197 8.96967C15.5126 8.67678 15.9874 8.67678 16.2803 8.96967C16.5466 9.23594 16.5708 9.6526 16.3529 9.94621L16.2803 10.0303L11.2803 15.0303C11.0141 15.2966 10.5974 15.3208 10.3038 15.1029L10.2197 15.0303L7.71967 12.5303C7.42678 12.2374 7.42678 11.7626 7.71967 11.4697C7.98594 11.2034 8.4026 11.1792 8.69621 11.3971L8.78033 11.4697L10.75 13.4393L15.2197 8.96967L10.75 13.4393Z" fill="currentColor"/></g>
<rect x="44" y="292" width="507" height="42" rx="6" fill="#0f141b" stroke="#9fc6e8" stroke-width="1"/>
<rect x="44" y="292" width="5" height="42" rx="2.5" fill="#4fc3bd"/>
<g transform="translate(64,303) scale(0.875)" fill="#9fc6e8" color="#9fc6e8"><path d="M8 4.5H8.99998V10.7382C8.99998 11.1132 8.90628 11.4822 8.72739 11.8117L5.14269 18.415C4.50968 19.5811 5.35388 20.9999 6.68068 20.9999H17.3193C18.6461 20.9999 19.4903 19.5811 18.8573 18.415L15.2726 11.8117C15.0937 11.4822 15 11.1132 15 10.7382V4.5H16C16.4142 4.5 16.75 4.16421 16.75 3.75C16.75 3.33579 16.4142 3 16 3H8C7.58579 3 7.25 3.33579 7.25 3.75C7.25 4.16421 7.58579 4.5 8 4.5ZM10.5 10.7382V4.5H13.5V10.7382C13.5 11.3631 13.6561 11.9781 13.9543 12.5273L14.7537 14H9.24621L10.0457 12.5273C10.3438 11.9781 10.5 11.3631 10.5 10.7382ZM8.43192 15.5H15.568L17.539 19.1307C17.6294 19.2973 17.5088 19.4999 17.3193 19.4999H6.68068C6.49114 19.4999 6.37054 19.2973 6.46097 19.1307L8.43192 15.5Z" fill="currentColor"/></g>
<text x="97" y="312" font-size="13.5" font-weight="bold" fill="#9fc6e8">Capa empírica</text>
<text x="97" y="326" font-size="10.5" fill="#9fb0c0">artefactos JSON con muestra, banda y protocolo</text>
<path d="M 64.0 336 L 68 341 L 72.0 336" fill="none" stroke="#9fc6e8" stroke-width="2" stroke-linecap="round" stroke-linejoin="round"/>
<g transform="translate(521,304) scale(0.75)" fill="#4fc3bd" color="#4fc3bd"><path d="M12 2C17.5228 2 22 6.47715 22 12C22 17.5228 17.5228 22 12 22C6.47715 22 2 17.5228 2 12C2 6.47715 6.47715 2 12 2ZM12 3.5C7.30558 3.5 3.5 7.30558 3.5 12C3.5 16.6944 7.30558 20.5 12 20.5C16.6944 20.5 20.5 16.6944 20.5 12C20.5 7.30558 16.6944 3.5 12 3.5ZM10.75 13.4393L15.2197 8.96967C15.5126 8.67678 15.9874 8.67678 16.2803 8.96967C16.5466 9.23594 16.5708 9.6526 16.3529 9.94621L16.2803 10.0303L11.2803 15.0303C11.0141 15.2966 10.5974 15.3208 10.3038 15.1029L10.2197 15.0303L7.71967 12.5303C7.42678 12.2374 7.42678 11.7626 7.71967 11.4697C7.98594 11.2034 8.4026 11.1792 8.69621 11.3971L8.78033 11.4697L10.75 13.4393L15.2197 8.96967L10.75 13.4393Z" fill="currentColor"/></g>
<rect x="44" y="344" width="507" height="42" rx="6" fill="#0f141b" stroke="#9fc6e8" stroke-width="1"/>
<rect x="44" y="344" width="5" height="42" rx="2.5" fill="#4fc3bd"/>
<g transform="translate(64,355) scale(0.875)" fill="#9fc6e8" color="#9fc6e8"><path d="M6 2C4.89543 2 4 2.89543 4 4V20C4 21.1046 4.89543 22 6 22H18C19.1046 22 20 21.1046 20 20V9.82777C20 9.29733 19.7893 8.78863 19.4142 8.41355L13.5864 2.58579C13.2114 2.21071 12.7027 2 12.1722 2H6ZM5.5 4C5.5 3.72386 5.72386 3.5 6 3.5H12V8C12 9.10457 12.8954 10 14 10H18.5V20C18.5 20.2761 18.2761 20.5 18 20.5H6C5.72386 20.5 5.5 20.2761 5.5 20V4ZM17.3793 8.5H14C13.7239 8.5 13.5 8.27614 13.5 8V4.62066L17.3793 8.5Z" fill="currentColor"/></g>
<text x="97" y="364" font-size="13.5" font-weight="bold" fill="#9fc6e8">Capa de explicación</text>
<text x="97" y="378" font-size="10.5" fill="#9fb0c0">inventario numérico: sólo cifras de los hechos</text>
<path d="M 64.0 388 L 68 393 L 72.0 388" fill="none" stroke="#9fc6e8" stroke-width="2" stroke-linecap="round" stroke-linejoin="round"/>
<g transform="translate(521,356) scale(0.75)" fill="#4fc3bd" color="#4fc3bd"><path d="M12 2C17.5228 2 22 6.47715 22 12C22 17.5228 17.5228 22 12 22C6.47715 22 2 17.5228 2 12C2 6.47715 6.47715 2 12 2ZM12 3.5C7.30558 3.5 3.5 7.30558 3.5 12C3.5 16.6944 7.30558 20.5 12 20.5C16.6944 20.5 20.5 16.6944 20.5 12C20.5 7.30558 16.6944 3.5 12 3.5ZM10.75 13.4393L15.2197 8.96967C15.5126 8.67678 15.9874 8.67678 16.2803 8.96967C16.5466 9.23594 16.5708 9.6526 16.3529 9.94621L16.2803 10.0303L11.2803 15.0303C11.0141 15.2966 10.5974 15.3208 10.3038 15.1029L10.2197 15.0303L7.71967 12.5303C7.42678 12.2374 7.42678 11.7626 7.71967 11.4697C7.98594 11.2034 8.4026 11.1792 8.69621 11.3971L8.78033 11.4697L10.75 13.4393L15.2197 8.96967L10.75 13.4393Z" fill="currentColor"/></g>
<rect x="44" y="396" width="507" height="42" rx="6" fill="#0f141b" stroke="#9fc6e8" stroke-width="1"/>
<rect x="44" y="396" width="5" height="42" rx="2.5" fill="#4fc3bd"/>
<g transform="translate(64,407) scale(0.875)" fill="#9fc6e8" color="#9fc6e8"><path d="M7 6C7 5.44772 7.44772 5 8 5H16C16.5523 5 17 5.44772 17 6V8C17 8.55228 16.5523 9 16 9H8C7.44772 9 7 8.55228 7 8V6ZM8.5 7.5H15.5V6.5H8.5V7.5ZM4 4.5C4 3.11929 5.11929 2 6.5 2H18C19.3807 2 20.5 3.11929 20.5 4.5V18.75C20.5 19.1642 20.1642 19.5 19.75 19.5H5.5C5.5 20.0523 5.94772 20.5 6.5 20.5H19.75C20.1642 20.5 20.5 20.8358 20.5 21.25C20.5 21.6642 20.1642 22 19.75 22H6.5C5.11929 22 4 20.8807 4 19.5V4.5ZM5.5 18H19V4.5C19 3.94772 18.5523 3.5 18 3.5H6.5C5.94772 3.5 5.5 3.94772 5.5 4.5V18Z" fill="currentColor"/></g>
<text x="97" y="416" font-size="13.5" font-weight="bold" fill="#9fc6e8">Capa de recuperación</text>
<text x="97" y="430" font-size="10.5" fill="#9fb0c0">cita con documento y página verificables</text>
<g transform="translate(521,408) scale(0.75)" fill="#4fc3bd" color="#4fc3bd"><path d="M12 2C17.5228 2 22 6.47715 22 12C22 17.5228 17.5228 22 12 22C6.47715 22 2 17.5228 2 12C2 6.47715 6.47715 2 12 2ZM12 3.5C7.30558 3.5 3.5 7.30558 3.5 12C3.5 16.6944 7.30558 20.5 12 20.5C16.6944 20.5 20.5 16.6944 20.5 12C20.5 7.30558 16.6944 3.5 12 3.5ZM10.75 13.4393L15.2197 8.96967C15.5126 8.67678 15.9874 8.67678 16.2803 8.96967C16.5466 9.23594 16.5708 9.6526 16.3529 9.94621L16.2803 10.0303L11.2803 15.0303C11.0141 15.2966 10.5974 15.3208 10.3038 15.1029L10.2197 15.0303L7.71967 12.5303C7.42678 12.2374 7.42678 11.7626 7.71967 11.4697C7.98594 11.2034 8.4026 11.1792 8.69621 11.3971L8.78033 11.4697L10.75 13.4393L15.2197 8.96967L10.75 13.4393Z" fill="currentColor"/></g>
<text x="44" y="470" font-size="12" font-weight="bold" letter-spacing="1.2" fill="#9fb0c0">QUÉ SE ACREDITA Y QUÉ NO</text>
<rect x="44" y="486" width="240" height="38" rx="5" fill="#19212c" stroke="#4fc3bd" stroke-width="1.2"/>
<g transform="translate(56,497) scale(0.7083333333333334)" fill="#4fc3bd" color="#4fc3bd"><path d="M12 2C17.5228 2 22 6.47715 22 12C22 17.5228 17.5228 22 12 22C6.47715 22 2 17.5228 2 12C2 6.47715 6.47715 2 12 2ZM12 3.5C7.30558 3.5 3.5 7.30558 3.5 12C3.5 16.6944 7.30558 20.5 12 20.5C16.6944 20.5 20.5 16.6944 20.5 12C20.5 7.30558 16.6944 3.5 12 3.5ZM10.75 13.4393L15.2197 8.96967C15.5126 8.67678 15.9874 8.67678 16.2803 8.96967C16.5466 9.23594 16.5708 9.6526 16.3529 9.94621L16.2803 10.0303L11.2803 15.0303C11.0141 15.2966 10.5974 15.3208 10.3038 15.1029L10.2197 15.0303L7.71967 12.5303C7.42678 12.2374 7.42678 11.7626 7.71967 11.4697C7.98594 11.2034 8.4026 11.1792 8.69621 11.3971L8.78033 11.4697L10.75 13.4393L15.2197 8.96967L10.75 13.4393Z" fill="currentColor"/></g>
<text x="82" y="503" font-size="11.5" font-weight="bold" fill="#9fc6e8">Coherencia computacional</text>
<text x="82" y="516" font-size="10.5" fill="#4fc3bd">verificada</text>
<rect x="298" y="486" width="240" height="38" rx="5" fill="#19212c" stroke="#8fb0d8" stroke-width="1.2"/>
<g transform="translate(310,497) scale(0.7083333333333334)" fill="#8fb0d8" color="#8fb0d8"><path d="M12 4.5C16.1421 4.5 19.5 7.85786 19.5 12C19.5 16.1421 16.1421 19.5 12 19.5C7.85786 19.5 4.5 16.1421 4.5 12C4.5 11.6236 4.52772 11.2538 4.58123 10.8923C4.64845 10.4382 4.31609 10 3.85708 10C3.48623 10 3.161 10.2562 3.10471 10.6228C3.03576 11.0718 3 11.5317 3 12C3 16.9706 7.02944 21 12 21C16.9706 21 21 16.9706 21 12C21 7.02944 16.9706 3 12 3C9.69494 3 7.59227 3.86656 6 5.29168V4.25C6 3.83579 5.66421 3.5 5.25 3.5C4.83579 3.5 4.5 3.83579 4.5 4.25V7.25C4.5 7.66421 4.83579 8 5.25 8H8.25C8.66421 8 9 7.66421 9 7.25C9 6.83579 8.66421 6.5 8.25 6.5H6.90093C8.23907 5.25883 10.0309 4.5 12 4.5ZM12.5 7.75C12.5 7.33579 12.1642 7 11.75 7C11.3358 7 11 7.33579 11 7.75V12.25C11 12.6642 11.3358 13 11.75 13H14.75C15.1642 13 15.5 12.6642 15.5 12.25C15.5 11.8358 15.1642 11.5 14.75 11.5H12.5V7.75Z" fill="currentColor"/></g>
<text x="336" y="503" font-size="11.5" font-weight="bold" fill="#9fc6e8">Descripción histórica</text>
<text x="336" y="516" font-size="10.5" fill="#8fb0d8">publicada con su muestra</text>
<rect x="44" y="532" width="240" height="38" rx="5" fill="#19212c" stroke="#e0875a" stroke-width="1.2"/>
<g transform="translate(56,543) scale(0.7083333333333334)" fill="#e0875a" color="#e0875a"><path d="M11.9982 14.0002C13.1027 14.0002 13.9982 13.1047 13.9982 12.0002C13.9982 10.8956 13.1027 10.0002 11.9982 10.0002C10.8936 10.0002 9.99817 10.8956 9.99817 12.0002C9.99817 13.1047 10.8936 14.0002 11.9982 14.0002ZM5.99817 12.0002C5.99817 8.68644 8.68446 6.00015 11.9982 6.00015C15.3119 6.00015 17.9982 8.68644 17.9982 12.0002C17.9982 15.3139 15.3119 18.0002 11.9982 18.0002C8.68446 18.0002 5.99817 15.3139 5.99817 12.0002ZM11.9982 7.50015C9.51289 7.50015 7.49817 9.51487 7.49817 12.0002C7.49817 14.4854 9.51289 16.5002 11.9982 16.5002C14.4834 16.5002 16.4982 14.4854 16.4982 12.0002C16.4982 9.51487 14.4834 7.50015 11.9982 7.50015ZM1.99609 12.0001C1.99609 6.47614 6.47419 1.99805 11.9982 1.99805C17.5222 1.99805 22.0003 6.47614 22.0003 12.0001C22.0003 17.5242 17.5222 22.0022 11.9982 22.0022C6.47419 22.0022 1.99609 17.5242 1.99609 12.0001ZM11.9982 3.49805C7.30261 3.49805 3.49609 7.30457 3.49609 12.0001C3.49609 16.6957 7.30261 20.5022 11.9982 20.5022C16.6938 20.5022 20.5003 16.6957 20.5003 12.0001C20.5003 7.30457 16.6938 3.49805 11.9982 3.49805Z" fill="currentColor"/></g>
<text x="82" y="549" font-size="11.5" font-weight="bold" fill="#9fc6e8">Capacidad predictiva</text>
<text x="82" y="562" font-size="10.5" fill="#e0875a">medida y no alcanzada</text>
<rect x="298" y="532" width="240" height="38" rx="5" fill="#19212c" stroke="#9fb0c0" stroke-width="1.2"/>
<g transform="translate(310,543) scale(0.7083333333333334)" fill="#9fb0c0" color="#9fb0c0"><path d="M12 2C17.5228 2 22 6.47715 22 12C22 17.5228 17.5228 22 12 22C6.47715 22 2 17.5228 2 12C2 6.47715 6.47715 2 12 2ZM12 3.5C7.30558 3.5 3.5 7.30558 3.5 12C3.5 16.6944 7.30558 20.5 12 20.5C16.6944 20.5 20.5 16.6944 20.5 12C20.5 7.30558 16.6944 3.5 12 3.5ZM15.4462 8.39705L15.5303 8.46967C15.7966 8.73594 15.8208 9.1526 15.6029 9.44621L15.5303 9.53033L13.061 12L15.5303 14.4697C15.7966 14.7359 15.8208 15.1526 15.6029 15.4462L15.5303 15.5303C15.2641 15.7966 14.8474 15.8208 14.5538 15.6029L14.4697 15.5303L12 13.061L9.53033 15.5303C9.26406 15.7966 8.8474 15.8208 8.55379 15.6029L8.46967 15.5303C8.2034 15.2641 8.1792 14.8474 8.39705 14.5538L8.46967 14.4697L10.939 12L8.46967 9.53033C8.2034 9.26406 8.1792 8.8474 8.39705 8.55379L8.46967 8.46967C8.73594 8.2034 9.1526 8.1792 9.44621 8.39705L9.53033 8.46967L12 10.939L14.4697 8.46967C14.7359 8.2034 15.1526 8.1792 15.4462 8.39705Z" fill="currentColor"/></g>
<text x="336" y="549" font-size="11.5" font-weight="bold" fill="#9fc6e8">Identificación causal</text>
<text x="336" y="562" font-size="10.5" fill="#9fb0c0">no reclamada</text>
<rect x="44" y="590" width="507" height="58" rx="6" fill="#0f141b" stroke="#4fc3bd" stroke-width="1.2"/>
<rect x="44" y="590" width="5" height="58" rx="2.5" fill="#e0875a"/>
<g transform="translate(62,603) scale(0.7916666666666666)" fill="#b04f1e" color="#b04f1e"><path d="M12 2.00098C16.0041 2.00098 19.25 5.24691 19.25 9.25098C19.25 11.347 18.3493 13.2707 16.5869 14.9929C16.51 15.0681 16.4504 15.1586 16.4118 15.2582L16.3804 15.3605L15.2493 20.2561C15.0266 21.22 14.2035 21.9183 13.2302 21.993L13.057 21.9996H10.9433C9.95374 21.9996 9.08791 21.3545 8.79629 20.4228L8.75088 20.2555L7.62132 15.3607C7.58904 15.2208 7.51728 15.0931 7.41456 14.9928C5.73515 13.3526 4.83778 11.5297 4.75613 9.54923L4.75 9.25098L4.75388 9.01166C4.88014 5.11837 8.07601 2.00098 12 2.00098ZM14.115 18.499H9.884L10.2125 19.9182C10.2831 20.2245 10.5357 20.4504 10.8401 20.4925L10.9433 20.4996H13.057C13.3713 20.4996 13.6481 20.3044 13.7577 20.0174L13.7878 19.9184L14.115 18.499ZM12 3.50098C8.89821 3.50098 6.37006 5.95699 6.25415 9.03042L6.25 9.25098L6.25672 9.52799C6.33286 11.0913 7.05722 12.5471 8.46262 13.9197C8.72675 14.1777 8.92265 14.496 9.03422 14.846L9.08291 15.0235L9.538 16.999H14.461L14.9189 15.0228C15.0019 14.6634 15.1718 14.3309 15.4124 14.0539L15.5386 13.9201C16.9432 12.5475 17.6672 11.0916 17.7433 9.52803L17.75 9.25098L17.7458 9.03042C17.6299 5.95699 15.1018 3.50098 12 3.50098Z" fill="currentColor"/></g>
<text x="90" y="611" font-size="11.5" font-weight="bold" letter-spacing="0.8" fill="#e0875a">HALLAZGO METODOLÓGICO PRINCIPAL</text>
<text x="90" y="628" font-size="11" fill="#e8eef4">Preservar los movimientos nacionales comunes al remuestrear ensancha la banda</text>
<text x="90" y="642" font-size="11" fill="#e8eef4">regional hasta que el 3 % heredado deja de rechazarse.</text>
<line x1="44" y1="666" x2="551" y2="666" stroke="#2b3746" stroke-width="1"/>
<text x="44" y="692" font-size="16" font-weight="bold" fill="#9fc6e8">Daniel Ribes</text>
<text x="44" y="712" font-size="12.5" fill="#e8eef4">Máster en Inteligencia Artificial y Data Science</text>
<text x="44" y="736" font-size="12.5" fill="#9fb0c0"><tspan font-weight="bold">Universidad:</tspan> <tspan fill="{p.blank}">_______________________________________</tspan></text>
<text x="44" y="756" font-size="12.5" fill="#9fb0c0"><tspan font-weight="bold">Tutor/a:</tspan> <tspan fill="{p.blank}">___________________________________________</tspan></text>
<text x="44" y="782" font-size="12.5" fill="#e8eef4"><tspan font-weight="bold">Defensa:</tspan> 28 de septiembre de 2026</text>
<rect x="0" y="790" width="595" height="52" fill="#0f141b"/>
<rect x="0" y="790" width="595" height="3" fill="#4fc3bd"/>
<g transform="translate(44,804) scale(0.7083333333333334)" fill="#536475" color="#536475"><path d="M17.75 3C19.5449 3 21 4.45507 21 6.25V17.75C21 19.5449 19.5449 21 17.75 21H6.25C4.45507 21 3 19.5449 3 17.75V6.25C3 4.45507 4.45507 3 6.25 3H17.75ZM19.5 8.5H4.5V17.75C4.5 18.7165 5.2835 19.5 6.25 19.5H17.75C18.7165 19.5 19.5 18.7165 19.5 17.75V8.5ZM7.75 14.5C8.44036 14.5 9 15.0596 9 15.75C9 16.4404 8.44036 17 7.75 17C7.05964 17 6.5 16.4404 6.5 15.75C6.5 15.0596 7.05964 14.5 7.75 14.5ZM12 14.5C12.6904 14.5 13.25 15.0596 13.25 15.75C13.25 16.4404 12.6904 17 12 17C11.3096 17 10.75 16.4404 10.75 15.75C10.75 15.0596 11.3096 14.5 12 14.5ZM7.75 10.5C8.44036 10.5 9 11.0596 9 11.75C9 12.4404 8.44036 13 7.75 13C7.05964 13 6.5 12.4404 6.5 11.75C6.5 11.0596 7.05964 10.5 7.75 10.5ZM12 10.5C12.6904 10.5 13.25 11.0596 13.25 11.75C13.25 12.4404 12.6904 13 12 13C11.3096 13 10.75 12.4404 10.75 11.75C10.75 11.0596 11.3096 10.5 12 10.5ZM16.25 10.5C16.9404 10.5 17.5 11.0596 17.5 11.75C17.5 12.4404 16.9404 13 16.25 13C15.5596 13 15 12.4404 15 11.75C15 11.0596 15.5596 10.5 16.25 10.5ZM17.75 4.5H6.25C5.2835 4.5 4.5 5.2835 4.5 6.25V7H19.5V6.25C19.5 5.2835 18.7165 4.5 17.75 4.5Z" fill="currentColor"/></g>
<text x="70" y="817" font-size="11" fill="#9fb0c0">Corte de datos 2026-07-31 · motor 1.1.0 · proyección condicional, no previsión</text>
</svg>